# File created by Blade
# Date/Time:  Wed Jan 21 19:19:18 2015
# Frame Rate: 120.000 fps
#------------------------------------------------------
:FULLY-SPECIFIED
:DEGREES
896
root -1.117406 13.921372 -2.494111 54.907456 -44.922143 18.255376
RightUpLeg -183.427262 -20.753015 35.274677
RightLeg 101.177494 -0.000000 -0.000000
RightFoot 3.106355 23.853216 22.860097
RightToeBase 31.856435 -0.000000 -0.000000
LeftUpLeg -21.959775 26.395060 17.657308
LeftLeg 15.665269 -0.000000 -0.000000
LeftFoot -37.233759 31.102126 -14.076878
LeftToeBase 14.119972 -0.000000 -0.000000
Spine -31.905669 16.049323 22.979432
RightShoulder -12.608990 31.174553 -20.837548
RightArm 7.750598 -37.681672 55.166645
RightForeArm -22.836126 -0.000000 10.206349
RightHand 54.437135 -0.000000 -59.952098
RightHandThumb1 -24.326973 -0.000000 -32.862282
LeftShoulder -19.619910 -22.876165 71.963567
LeftArm 75.990201 -43.991082 -13.195793
LeftForeArm 20.478821 -0.000000 14.216984
LeftHand -18.317991 -0.000000 8.390890
LeftHandThumb1 -26.253704 0.000000 33.147579
Head -39.630840 17.787938 54.900727
897
root -1.121322 13.908810 -2.474574 54.928834 -44.969230 18.204444
RightUpLeg -183.437888 -20.734085 35.291545
RightLeg 101.216591 -0.000000 -0.000000
RightFoot 3.159212 23.892913 22.877594
RightToeBase 31.856846 -0.000000 -0.000000
LeftUpLeg -21.860030 26.420856 17.666518
LeftLeg 15.650250 -0.000000 -0.000000
LeftFoot -37.274255 31.083670 -14.118870
LeftToeBase 14.112906 -0.000000 -0.000000
Spine -31.870682 16.041653 23.009474
RightShoulder -12.597762 31.062651 -20.815930
RightArm 7.671907 -37.743038 55.111209
RightForeArm -22.801291 -0.000000 10.690981
RightHand 53.942344 0.000000 -59.820059
RightHandThumb1 -24.326973 -0.000000 -32.862282
LeftShoulder -19.607642 -22.801830 71.962138
LeftArm 76.026713 -43.894901 -13.204317
LeftForeArm 20.392251 -0.000000 14.259489
LeftHand -18.383602 0.000000 8.677266
LeftHandThumb1 -26.253704 0.000000 33.147579
Head -39.636969 17.807618 54.887355
898
root -1.124609 13.896111 -2.460312 54.978020 -45.030840 18.168330
RightUpLeg -183.468979 -20.702204 35.269795
RightLeg 101.248653 -0.000000 -0.000000
RightFoot 3.201763 23.914426 22.910985
RightToeBase 31.826431 -0.000000 -0.000000
LeftUpLeg -21.809088 26.464650 17.641252
LeftLeg 15.634026 -0.000000 -0.000000
LeftFoot -37.292619 31.117668 -14.127336
LeftToeBase 14.106668 -0.000000 -0.000000
Spine -31.860255 16.060438 22.990271
RightShoulder -12.584830 30.966474 -20.817626
RightArm 7.502068 -37.459742 55.155754
RightForeArm -23.160520 0.000000 11.169881
RightHand 53.741744 -0.000000 -59.586342
RightHandThumb1 -24.326973 -0.000000 -32.862282
LeftShoulder -19.618874 -22.689985 71.952943
LeftArm 76.151452 -43.878649 -13.299916
LeftForeArm 20.491103 -0.000000 14.258527
LeftHand -18.329227 -0.000000 8.675380
LeftHandThumb1 -26.253704 0.000000 33.147579
Head -39.702031 17.845743 54.837141
899
root -1.127890 13.883444 -2.446082 55.023464 -45.084730 18.149129
RightUpLeg -183.512721 -20.682420 35.246023
RightLeg 101.280682 -0.000000 -0.000000
RightFoot 3.221443 23.935585 22.914065
RightToeBase 31.775815 -0.000000 -0.000000
LeftUpLeg -21.772288 26.489777 17.608949
LeftLeg 15.619203 -0.000000 -0.000000
LeftFoot -37.331993 31.125231 -14.172900
LeftToeBase 14.108281 -0.000000 -0.000000
Spine -31.869713 16.092752 22.952174
RightShoulder -12.581740 30.909987 -20.816698
RightArm 7.295635 -37.461667 55.156492
RightForeArm -23.164571 -0.000000 11.678337
RightHand 53.489085 0.000000 -59.522537
RightHandThumb1 -24.326973 -0.000000 -32.862282
LeftShoulder -19.617737 -22.582193 71.929209
LeftArm 76.271592 -43.867543 -13.354264
LeftForeArm 20.617233 -0.000000 14.226298
LeftHand -18.377115 0.000000 8.628172
LeftHandThumb1 -26.253704 0.000000 33.147579
Head -39.785827 17.858768 54.778835
900
root -1.133085 13.869973 -2.433326 55.088151 -45.124593 18.084235
RightUpLeg -183.533471 -20.650499 35.243505
RightLeg 101.325797 -0.000000 -0.000000
RightFoot 3.210568 23.956862 22.897117
RightToeBase 31.834274 -0.000000 -0.000000
LeftUpLeg -21.698768 26.490819 17.632344
LeftLeg 15.587794 -0.000000 -0.000000
LeftFoot -37.376850 31.157076 -14.202880
LeftToeBase 14.114837 -0.000000 -0.000000
Spine -31.861937 16.153292 22.939035
RightShoulder -12.614789 30.838781 -20.854883
RightArm 7.143791 -37.553033 55.157571
RightForeArm -23.182522 -0.000000 12.102478
RightHand 53.260089 0.000000 -59.394648
RightHandThumb1 -24.326973 -0.000000 -32.862282
LeftShoulder -19.609469 -22.509929 71.916827
LeftArm 76.274085 -43.808921 -13.273260
LeftForeArm 20.463719 0.000000 14.200125
LeftHand -18.295698 -0.000000 8.832125
LeftHandThumb1 -26.253704 0.000000 33.147579
Head -39.878534 17.872785 54.730707
901
root -1.138284 13.857577 -2.420361 55.139365 -45.149822 18.015248
RightUpLeg -183.543406 -20.634205 35.252640
RightLeg 101.368848 -0.000000 -0.000000
RightFoot 3.236624 23.971691 22.942595
RightToeBase 31.906293 -0.000000 -0.000000
LeftUpLeg -21.642096 26.504692 17.671286
LeftLeg 15.605432 -0.000000 -0.000000
LeftFoot -37.354147 31.264884 -14.171764
LeftToeBase 14.109629 -0.000000 -0.000000
Spine -31.837884 16.223918 22.938074
RightShoulder -12.676559 30.755733 -20.918810
RightArm 7.083420 -37.872329 55.099299
RightForeArm -22.931453 -0.000000 12.434745
RightHand 53.029348 -0.000000 -59.392990
RightHandThumb1 -24.326973 -0.000000 -32.862282
LeftShoulder -19.597181 -22.485215 71.902797
LeftArm 76.321501 -43.760835 -13.291558
LeftForeArm 20.474674 -0.000000 14.231507
LeftHand -18.321291 -0.000000 8.729977
LeftHandThumb1 -26.253704 0.000000 33.147579
Head -39.984020 17.879593 54.671025
902
root -1.142923 13.844219 -2.411233 55.212649 -45.186690 17.963525
RightUpLeg -183.582681 -20.599236 35.238423
RightLeg 101.409129 -0.000000 -0.000000
RightFoot 3.225871 23.968812 22.874695
RightToeBase 31.864118 -0.000000 -0.000000
LeftUpLeg -21.634563 26.522115 17.682816
LeftLeg 15.653458 -0.000000 -0.000000
LeftFoot -37.448105 31.238009 -14.278946
LeftToeBase 14.124598 -0.000000 -0.000000
Spine -31.850945 16.311893 22.894558
RightShoulder -12.723880 30.667359 -21.023521
RightArm 6.990973 -37.979531 55.143961
RightForeArm -22.965704 -0.000000 12.650548
RightHand 52.864033 -0.000000 -59.506270
RightHandThumb1 -24.326973 -0.000000 -32.862282
LeftShoulder -19.594963 -22.448269 71.890055
LeftArm 76.408965 -43.717174 -13.333442
LeftForeArm 20.305974 -0.000000 14.226971
LeftHand -18.623578 -0.000000 9.254303
LeftHandThumb1 -26.253704 0.000000 33.147579
Head -40.089943 17.884890 54.604782
903
root -1.148893 13.830571 -2.400711 55.266862 -45.215943 17.929727
RightUpLeg -183.631347 -20.578666 35.232638
RightLeg 101.458288 -0.000000 -0.000000
RightFoot 3.244227 23.969633 22.895294
RightToeBase 31.909716 -0.000000 -0.000000
LeftUpLeg -21.603157 26.482775 17.697058
LeftLeg 15.651930 -0.000000 -0.000000
LeftFoot -37.572536 31.280141 -14.439761
LeftToeBase 14.267611 -0.000000 -0.000000
Spine -31.876095 16.377839 22.847451
RightShoulder -12.772427 30.529424 -21.080233
RightArm 7.044549 -38.654192 54.987632
RightForeArm -22.368048 -0.000000 12.911347
RightHand 52.336734 -0.000000 -59.678107
RightHandThumb1 -24.326973 -0.000000 -32.862282
LeftShoulder -19.591530 -22.401281 71.881131
LeftArm 76.582910 -43.678701 -13.454658
LeftForeArm 20.472512 -0.000000 14.166207
LeftHand -18.642323 0.000000 9.257633
LeftHandThumb1 -26.253704 0.000000 33.147579
Head -40.145407 17.903039 54.567578
904
root -1.158512 13.814380 -2.391671 55.308965 -45.236189 17.845369
RightUpLeg -183.626155 -20.566772 35.226922
RightLeg 101.530445 -0.000000 -0.000000
RightFoot 3.210420 23.984203 22.839137
RightToeBase 31.886296 -0.000000 -0.000000
LeftUpLeg -21.494643 26.438818 17.789951
LeftLeg 15.655446 -0.000000 -0.000000
LeftFoot -37.532219 31.405873 -14.384637
LeftToeBase 14.137232 -0.000000 -0.000000
Spine -31.849872 16.450036 22.848388
RightShoulder -12.780598 30.362501 -21.142438
RightArm 7.081807 -38.778051 54.971517
RightForeArm -22.130408 -0.000000 12.967719
RightHand 52.379837 -0.000000 -59.894661
RightHandThumb1 -24.326973 -0.000000 -32.862282
LeftShoulder -19.565501 -22.330192 71.805781
LeftArm 76.768237 -43.687925 -13.557848
LeftForeArm 20.478355 -0.000000 14.153244
LeftHand -18.521442 0.000000 9.055347
LeftHandThumb1 -26.253704 0.000000 33.147579
Head -40.217788 17.933350 54.484072
905
root -1.168786 13.799265 -2.384716 55.337342 -45.248796 17.783121
RightUpLeg -183.629621 -20.567837 35.216660
RightLeg 101.603870 -0.000000 -0.000000
RightFoot 3.210912 23.995249 22.870258
RightToeBase 31.895391 -0.000000 -0.000000
LeftUpLeg -21.423541 26.420300 17.858262
LeftLeg 15.680762 -0.000000 -0.000000
LeftFoot -37.501802 31.518524 -14.328586
LeftToeBase 14.136330 -0.000000 -0.000000
Spine -31.831222 16.513295 22.822217
RightShoulder -12.784289 30.198232 -21.169728
RightArm 6.990024 -38.723257 54.983075
RightForeArm -22.158706 -0.000000 13.238573
RightHand 52.288035 -0.000000 -59.821535
RightHandThumb1 -24.326973 -0.000000 -32.862282
LeftShoulder -19.558562 -22.278187 71.757727
LeftArm 76.966196 -43.682393 -13.667575
LeftForeArm 20.491185 -0.000000 14.178006
LeftHand -18.511121 -0.000000 8.944459
LeftHandThumb1 -26.253704 0.000000 33.147579
Head -40.272541 17.954264 54.472982
